HIERARCHY
ROOT Hips
{
    OFFSET 0.000000 0.000000 0.000000
    CHANNELS 6 Xposition Yposition Zposition Zrotation Xrotation Yrotation
    JOINT Spine
    {
        OFFSET -0.000000 14.517291 0.000000
        CHANNELS 3 Zrotation Xrotation Yrotation
        JOINT Spine1
        {
            OFFSET -0.000000 37.558300 0.000000
            CHANNELS 3 Zrotation Xrotation Yrotation
            JOINT Neck
            {
                OFFSET -0.000000 37.404057 3.400369
                CHANNELS 3 Zrotation Xrotation Yrotation
                JOINT Head
                {
                    OFFSET -0.000000 24.785618 -3.540803
                    CHANNELS 3 Zrotation Xrotation Yrotation
                    End Site
                    {
                        OFFSET -0.000000 35.408028 0.000000
                    }
                }
            }
            JOINT LeftShoulder
            {
                OFFSET 6.992933 33.973492 -0.192664
                CHANNELS 3 Zrotation Xrotation Yrotation
                JOINT LeftArm
                {
                    OFFSET 21.527611 0.000000 0.000000
                    CHANNELS 3 Zrotation Xrotation Yrotation
                    JOINT LeftForeArm
                    {
                        OFFSET 56.353916 0.000000 0.000000
                        CHANNELS 3 Zrotation Xrotation Yrotation
                        JOINT LeftHand
                        {
                            OFFSET 47.774071 0.000000 0.000000
                            CHANNELS 3 Zrotation Xrotation Yrotation
                            End Site
                            {
                                OFFSET 26.556021 0.000000 0.000000
                            }
                        }
                    }
                }
            }
            JOINT RightShoulder
            {
                OFFSET -7.065357 33.973492 -0.192664
                CHANNELS 3 Zrotation Xrotation Yrotation
                JOINT RightArm
                {
                    OFFSET -21.527611 0.000000 0.000000
                    CHANNELS 3 Zrotation Xrotation Yrotation
                    JOINT RightForeArm
                    {
                        OFFSET -56.353916 0.000000 0.000000
                        CHANNELS 3 Zrotation Xrotation Yrotation
                        JOINT RightHand
                        {
                            OFFSET -47.774071 0.000000 0.000000
                            CHANNELS 3 Zrotation Xrotation Yrotation
                            End Site
                            {
                                OFFSET -26.556021 0.000000 0.000000
                            }
                        }
                    }
                }
            }
        }
    }
    JOINT LeftUpLeg
    {
        OFFSET 17.704014 0.000000 0.000000
        CHANNELS 3 Zrotation Xrotation Yrotation
        JOINT LeftLeg
        {
            OFFSET -0.000000 -81.181816 0.000000
            CHANNELS 3 Zrotation Xrotation Yrotation
            JOINT LeftFoot
            {
                OFFSET -0.000000 -62.821102 0.000000
                CHANNELS 3 Zrotation Xrotation Yrotation
                JOINT LeftToeBase
                {
                    OFFSET -0.000000 -11.507608 26.556021
                    CHANNELS 3 Zrotation Xrotation Yrotation
                    End Site
                    {
                        OFFSET -0.000000 0.000000 7.081605
                    }
                }
            }
        }
    }
    JOINT RightUpLeg
    {
        OFFSET -17.704014 0.000000 0.000000
        CHANNELS 3 Zrotation Xrotation Yrotation
        JOINT RightLeg
        {
            OFFSET -0.000000 -81.181816 0.000000
            CHANNELS 3 Zrotation Xrotation Yrotation
            JOINT RightFoot
            {
                OFFSET -0.000000 -62.821102 0.000000
                CHANNELS 3 Zrotation Xrotation Yrotation
                JOINT RightToeBase
                {
                    OFFSET -0.000000 -11.507608 26.556021
                    CHANNELS 3 Zrotation Xrotation Yrotation
                    End Site
                    {
                        OFFSET -0.000000 0.000000 7.081605
                    }
                }
            }
        }
    }
}
MOTION
Frames:    11
Frame Time:    0.008333
18.408199    153.680893    -106.372498    1.520064    -7.663834    39.409130    -2.588186    0.648160    -1.088893    -2.787407    2.900875    -0.298335    5.711374    -1.455104    -8.285037    -0.259679    5.105276    -9.572865    4.922046    8.443459    -18.214834    -27.998150    22.594122    -53.044380    -5.114298    -6.831281    -106.397018    7.823901    -14.215605    -9.739223    -4.970591    1.238635    -1.591775    33.691772    -21.449327    49.252220    -19.850796    -30.181772    112.175270    -19.118034    -7.185506    34.783516    17.000292    -1.073102    0.502459    -15.544463    38.753296    -17.282598    8.816024    -29.462280    45.479282    0.000000    0.000000    0.000000    -18.955570    -15.719187    -13.240307    12.921507    32.289608    -13.769186    6.089990    1.150551    -17.282688    0.000000    0.000000    0.000000    
18.413052    153.689102    -106.378845    1.510148    -7.668824    39.402390    -2.595129    0.658116    -1.085105    -2.763099    2.888332    -0.298092    5.679409    -1.448179    -8.321733    -0.205713    5.132932    -9.600247    4.915250    8.450886    -18.224216    -28.013884    22.577688    -53.023792    -5.130313    -6.824080    -106.399292    7.845283    -14.230266    -9.722576    -4.983022    1.255363    -1.606219    33.665966    -21.447100    49.229549    -19.878939    -30.168808    112.151756    -19.140585    -7.156857    34.842312    17.005022    -1.069899    0.488211    -15.556612    38.740082    -17.259371    8.814188    -29.460867    45.487476    0.000000    0.000000    0.000000    -18.938263    -15.718825    -13.229833    12.902930    32.273941    -13.747146    6.107893    1.170660    -17.289339    0.000000    0.000000    0.000000    
18.422094    153.693985    -106.388626    1.500741    -7.667049    39.393906    -2.592775    0.651164    -1.086222    -2.759070    2.894427    -0.298464    5.655780    -1.435837    -8.355291    -0.152697    5.142629    -9.625581    4.912834    8.447447    -18.223286    -28.024023    22.575796    -53.013680    -5.120656    -6.850668    -106.394272    7.888600    -14.245184    -9.702977    -4.993070    1.248504    -1.598776    33.653736    -21.458063    49.195774    -19.881346    -30.128677    112.153397    -19.157301    -7.121235    34.898022    17.003496    -1.074654    0.472774    -15.565329    38.738701    -17.254988    8.830470    -29.455509    45.503601    0.000000    0.000000    0.000000    -18.932266    -15.720474    -13.226647    12.904345    32.250751    -13.759398    6.093005    1.189543    -17.284655    0.000000    0.000000    0.000000    
18.428516    153.699310    -106.397415    1.488016    -7.666353    39.382439    -2.591818    0.651314    -1.082953    -2.749980    2.889542    -0.297633    5.621903    -1.423301    -8.402790    -0.088009    5.158422    -9.662625    4.916035    8.454541    -18.221088    -28.040733    22.558947    -53.007671    -5.130338    -6.859738    -106.391159    7.880038    -14.265595    -9.701035    -4.991000    1.244055    -1.595497    33.629856    -21.481386    49.161121    -19.854404    -30.075712    112.173546    -19.154818    -7.096029    34.921539    17.003174    -1.079896    0.470405    -15.558558    38.734909    -17.242529    8.817616    -29.461521    45.499008    0.000000    0.000000    0.000000    -18.918501    -15.726454    -13.211584    12.896204    32.229984    -13.740855    6.102895    1.206650    -17.312296    0.000000    0.000000    0.000000    
18.439058    153.701096    -106.404449    1.482864    -7.670182    39.378056    -2.587224    0.657148    -1.085711    -2.745900    2.890686    -0.298578    5.618539    -1.407022    -8.432920    -0.066634    5.146348    -9.690573    4.920090    8.452252    -18.211020    -28.033268    22.579908    -53.016872    -5.113348    -6.926142    -106.394180    7.909177    -14.308880    -9.668112    -5.000729    1.242995    -1.598221    33.616566    -21.484331    49.143414    -19.838163    -30.055590    112.187836    -19.166233    -7.096949    34.931965    16.999874    -1.080301    0.448878    -15.565603    38.730137    -17.204668    8.809470    -29.468536    45.490524    0.000000    0.000000    0.000000    -18.910477    -15.720651    -13.208003    12.891307    32.212181    -13.750394    6.096392    1.217838    -17.307739    0.000000    0.000000    0.000000    
18.444679    153.702469    -106.411980    1.474086    -7.676799    39.368568    -2.586504    0.670209    -1.084679    -2.730339    2.882776    -0.298911    5.604370    -1.388372    -8.462223    -0.032784    5.132117    -9.714585    4.915396    8.451353    -18.199804    -28.041973    22.574450    -53.018078    -5.108756    -6.950401    -106.392052    7.909600    -14.326714    -9.670548    -4.999785    1.248922    -1.594729    33.589520    -21.501631    49.124973    -19.820074    -30.045845    112.196457    -19.160143    -7.116863    34.976887    17.010124    -1.084457    0.428219    -15.590003    38.739288    -17.196016    8.814711    -29.471840    45.509243    0.000000    0.000000    0.000000    -18.898415    -15.718167    -13.205550    12.891109    32.193413    -13.767052    6.094041    1.234821    -17.300058    0.000000    0.000000    0.000000    
18.453274    153.702637    -106.418701    1.464421    -7.673528    39.360039    -2.588796    0.667503    -1.084422    -2.718615    2.885370    -0.299087    5.583214    -1.372917    -8.488486    0.017441    5.116882    -9.732853    4.915302    8.442971    -18.200596    -28.049225    22.576447    -53.008438    -5.080321    -6.995618    -106.392868    7.855310    -14.329495    -9.670187    -5.007064    1.238291    -1.588896    33.595356    -21.527651    49.107456    -19.774313    -30.005161    112.229759    -19.167982    -7.121201    34.942715    17.009117    -1.095761    0.428370    -15.589625    38.750942    -17.196869    8.823046    -29.476595    45.524597    0.000000    0.000000    0.000000    -18.892090    -15.724905    -13.214519    12.874417    32.184761    -13.732333    6.098498    1.246403    -17.316307    0.000000    0.000000    0.000000    
18.463951    153.700180    -106.424583    1.463295    -7.674634    39.358936    -2.592101    0.673631    -1.081845    -2.709193    2.888855    -0.298411    5.573154    -1.355331    -8.519363    0.051902    5.095179    -9.759131    4.915770    8.444261    -18.202761    -28.031788    22.584829    -53.021278    -5.043259    -7.066642    -106.388824    7.853381    -14.350261    -9.674182    -5.013875    1.226133    -1.595116    33.598652    -21.544561    49.093025    -19.718500    -29.975855    112.262321    -19.182030    -7.160219    34.922588    17.009937    -1.099719    0.396960    -15.622830    38.756622    -17.162567    8.835988    -29.472494    45.525730    0.000000    0.000000    0.000000    -18.892057    -15.721660    -13.213429    12.867839    32.181561    -13.757762    6.097598    1.243260    -17.278727    0.000000    0.000000    0.000000    
18.474531    153.699371    -106.431755    1.457518    -7.673861    39.357944    -2.590569    0.675644    -1.076656    -2.705636    2.895638    -0.296642    5.554501    -1.357037    -8.551793    0.105040    5.094772    -9.784810    4.922710    8.432189    -18.206659    -28.039366    22.577950    -53.024632    -5.118866    -7.112172    -106.438606    7.808861    -14.488679    -9.572545    -5.012870    1.221989    -1.601641    33.593685    -21.556303    49.083538    -19.681078    -29.985130    112.269577    -19.167379    -7.222393    34.920094    17.008009    -1.106170    0.396321    -15.621062    38.763428    -17.162775    8.829185    -29.490301    45.533607    0.000000    0.000000    0.000000    -18.894640    -15.717679    -13.207291    12.872680    32.164989    -13.731034    6.104175    1.246742    -17.306631    0.000000    0.000000    0.000000    
18.484509    153.696182    -106.438080    1.454192    -7.666931    39.355488    -2.593565    0.674584    -1.078228    -2.710639    2.897137    -0.297032    5.552357    -1.336701    -8.572723    0.158507    5.067490    -9.799995    4.938726    8.428571    -18.205120    -28.042786    22.568350    -53.032982    -5.099877    -7.146342    -106.429703    7.773357    -14.493914    -9.580783    -5.002837    1.219228    -1.595933    33.598545    -21.575348    49.081448    -19.660181    -29.983206    112.261925    -19.176765    -7.251251    34.863026    17.003832    -1.108889    0.393559    -15.635427    38.755905    -17.145164    8.841359    -29.486748    45.531994    0.000000    0.000000    0.000000    -18.902847    -15.727051    -13.199789    12.880736    32.167839    -13.743372    6.102098    1.252503    -17.315987    0.000000    0.000000    0.000000    
18.495932    153.693451    -106.445374    1.451729    -7.659204    39.356060    -2.605761    0.672702    -1.074931    -2.691384    2.904470    -0.296208    5.530337    -1.328612    -8.601193    0.206942    5.052422    -9.820946    4.926959    8.419233    -18.213604    -28.043070    22.550064    -53.031349    -5.087364    -7.156901    -106.424858    7.786496    -14.488405    -9.577940    -5.012140    1.199685    -1.602562    33.600368    -21.562601    49.070492    -19.622259    -30.000656    112.253860    -19.131126    -7.317391    34.832096    16.995386    -1.113888    0.411788    -15.626937    38.757839    -17.148176    8.843343    -29.494186    45.521164    0.000000    0.000000    0.000000    -18.917732    -15.731603    -13.199518    12.894050    32.165413    -13.745131    6.112107    1.242943    -17.312973    0.000000    0.000000    0.000000    
